/* XPM */
static char *f10fc59229104895ed621df50886b1ccOgIw7PXPdUEi62Os[] = {
/* columns rows colors chars-per-pixel */
"32 32 220 2 ",
"   c #57003F",
".  c #7C362E",
"X  c #7E4C3B",
"o  c #5C0843",
"O  c #5D1047",
"+  c #7D0046",
"@  c #583D4A",
"#  c #6D2447",
"$  c #693C49",
"%  c #7C364F",
"&  c #4D3563",
"*  c #394357",
"=  c #414853",
"-  c #5E415F",
";  c #684E5A",
":  c #794754",
">  c #67545D",
",  c #714669",
"<  c #6C5864",
"1  c #7A5E69",
"2  c #7E4B73",
"3  c #776271",
"4  c #983F3D",
"5  c #A7502A",
"6  c #A95B3B",
"7  c #B47231",
"8  c #D47D11",
"9  c #CC7031",
"0  c #981746",
"q  c #942845",
"w  c #89344A",
"e  c #8F3549",
"r  c #89474C",
"t  c #97494D",
"y  c #9A5B4A",
"u  c #965652",
"i  c #A74C48",
"p  c #B14C48",
"a  c #A95547",
"s  c #AB5A4C",
"d  c #B15D4D",
"f  c #AC5453",
"g  c #98624B",
"h  c #9C6957",
"j  c #A4664E",
"k  c #B96849",
"l  c #A7734A",
"z  c #BA784B",
"x  c #AA6957",
"c  c #B66C51",
"v  c #AA7654",
"b  c #BA7954",
"n  c #895672",
"m  c #896974",
"M  c #9D6A75",
"N  c #897A77",
"B  c #967A7C",
"V  c #A47573",
"C  c #C17C49",
"Z  c #D27C47",
"A  c #C87753",
"S  c #DC8000",
"D  c #E58E19",
"F  c #CB8127",
"G  c #D48B27",
"H  c #928A59",
"J  c #BD8347",
"K  c #A88257",
"L  c #B88359",
"P  c #AB9C5C",
"I  c #B2A25F",
"U  c #84866A",
"Y  c #A9856B",
"T  c #B98A64",
"R  c #A29760",
"E  c #B4987D",
"W  c #A5A76B",
"Q  c #CC8B46",
"!  c #DC8747",
"~  c #C5885A",
"^  c #CA8C5B",
"/  c #D78953",
"(  c #DE8C51",
")  c #CE9258",
"_  c #E69D58",
"`  c #D8A45D",
"'  c #D2B55C",
"]  c #F9B84D",
"[  c #FBBA57",
"{  c #C99A63",
"}  c #D39F76",
"|  c #C2A37A",
" . c #D5A470",
".. c #E4A764",
"X. c #FFC45A",
"o. c #F8C567",
"O. c #ECD26F",
"+. c #FFD36B",
"@. c #F8CD71",
"#. c #FCD175",
"$. c #FFDA74",
"%. c #FDDB7B",
"&. c #2D6590",
"*. c #3F7DA7",
"=. c #596389",
"-. c #4F6C91",
";. c #496B98",
":. c #4E749C",
">. c #696983",
",. c #70708A",
"<. c #657C9D",
"1. c #6E7A99",
"2. c #777693",
"3. c #7C7993",
"4. c #4E79A4",
"5. c #597DA6",
"6. c #547EAB",
"7. c #667EA4",
"8. c #727FA1",
"9. c #867A8C",
"0. c #967C84",
"q. c #9D7C8C",
"w. c #847C92",
"e. c #A27D8B",
"r. c #0083BC",
"t. c #6D819E",
"y. c #76829D",
"u. c #5581AC",
"i. c #5E83AA",
"p. c #598BB8",
"a. c #6582A7",
"s. c #6B84A6",
"d. c #6584A9",
"f. c #6B84A8",
"g. c #6A89AC",
"h. c #7287A5",
"j. c #7B8AA3",
"k. c #0289C3",
"l. c #158EC2",
"z. c #498EC1",
"x. c #5096C8",
"c. c #56A3D4",
"v. c #51ACE1",
"b. c #5AB1E6",
"n. c #5DB7EB",
"m. c #64B2E4",
"M. c #6CB7E8",
"N. c #73B6E5",
"B. c #75B7E5",
"V. c #75BCEA",
"C. c #6CBDF0",
"Z. c #9D898A",
"A. c #8C8393",
"S. c #898697",
"D. c #958B98",
"F. c #9B9199",
"G. c #A5848B",
"H. c #A98B8B",
"J. c #B48B8B",
"K. c #AE948C",
"L. c #B69885",
"P. c #B2958D",
"I. c #B49A8D",
"U. c #A68C93",
"Y. c #AB9896",
"T. c #B79994",
"R. c #9DAB9C",
"E. c #A3AD9B",
"W. c #B7A399",
"Q. c #AB9EA4",
"!. c #B7A5A5",
"~. c #AEADB1",
"^. c #C6998D",
"/. c #D29D8F",
"(. c #C79B92",
"). c #CAA99A",
"_. c #D6A696",
"`. c #CDB098",
"'. c #DEB09A",
"]. c #C5AAA5",
"[. c #C3ACAA",
"{. c #DAADA3",
"}. c #C9B4A8",
"|. c #D7BEA9",
" X c #C6B7B3",
".X c #D7B9B3",
"XX c #D9BBB4",
"oX c #E1AEA2",
"OX c #E6B9A7",
"+X c #F8DE86",
"@X c #FDE286",
"#X c #FEE999",
"$X c #DBC0A4",
"%X c #D5C2B4",
"&X c #D7C4B9",
"*X c #DCCBBC",
"=X c #E7C2AF",
"-X c #E5CDB6",
";X c #E9D2B7",
":X c #FFF2A9",
">X c #80AED5",
",X c #84B4D8",
"<X c #81BAE7",
"1X c #B5C7CA",
"2X c #8ECAF4",
"3X c #BFE2F6",
"4X c #D7C9C2",
"5X c #E4D4C3",
"6X c #F3DDC6",
"7X c #EFE4CF",
"8X c #F5E6CB",
"9X c #F9E5CC",
"0X c #ECE8D5",
"qX c #FBE9D3",
"wX c #FDF4DB",
"eX c #FFF9DF",
"rX c #C5DDEF",
"tX c #C1E2F8",
"yX c #EAF3F3",
"uX c #FEFEFE",
/* pixels */
"f.f.f.f.f.f.f.s.s.s.s.s.f.f.f.a.6.d.f.s.s.s.f.f.f.f.s.s.a.f.s.a.",
"f.s.s.s.s.f.s.s.s.s.s.s.s.s.a.s.W.h.d.s.s.s.s.s.f.s.s.s.s.f.s.s.",
"s.f.f.f.f.f.s.s.s.s.s.f.d.f.a.L.) L.s.f.d.s.s.s.f.f.f.f.f.f.s.s.",
"f.s.s.s.s.s.s.s.s.s.f.i.s.D.E v X l E F.t.a.f.s.f.f.f.f.f.f.s.s.",
"f.s.s.s.s.a.s.s.s.d.s.Y.Y Z.T >.P.,.T H.Y Y.s.i.f.f.s.d.a.s.s.a.",
"f.s.s.a.d.h.d.s.5.D.0.A.$X}.wX%X6X%XwX}.|.D.0.F.5.s.d.s.a.d.s.a.",
"f.s.s.a.K.| 1.d.j.3.~.5X7XT.Z.9.t.3.Z.I.7X5X XA.j.d.1.| E a.s.s.",
"f.s.d.t.l 7 N i.N Y.wXT.;.p.c.m.M.m.c.p.;.H.wX!.N i.9.7 7 2.d.s.",
"a.a.f.6.3 y :.5.~.8Xm z.V.V.V.B.N.N.V.V.V.z.m 8X~.4.:.u 1 4.s.s.",
"s.d.y.*X;X;X-X[.-XW.x.V.M.m.M.N.N.N.N.m.m.V.x.W.;X[.*X;X;X-XS.5.",
"s.f.<.B H.U.B 1 0.z.C.b.,X`.[.n.B.n.[.`.,Xb.C.x.0.1 B U.G.B <.f.",
"s.f.5.Q.&X4X[.:.v.n.>X X} G _.n.B.n._.G }  X,Xn.v.*.!.4X&X!.:.f.",
"s.f.a.9.H.U.B s.,X). .z 6 F ).n.B.n.).8 6 z  .).,Xg.B U.H.9.7.f.",
"a.s.g.=.2 n , < z Q y z ( D ).C.<XC.).D ( b y Q C < , n 2 =.g.s.",
"a.s.d.3.5X9X%Xl.x Z z ! ! 8 ).2X2X2X}.S Z ! C Z c k. X9X6Xw.i.s.",
"f.s.d.3.9XeX*X>.c _ ^ / / 9 {.3XrXtX{.8 / / ^ _ c >.*XeXqXA.i.s.",
"s.s.d.3.6XwX*X- c ) T ~ L 7 oXyXyXyXoX7 ~ ~ T { c & &XwX9XA.i.s.",
"s.s.d.3.6XwX*X: s C h y u 6 OXuXuXuXOX5 u a h b k $ &XwX9XA.i.s.",
"s.s.d.3.8XwX4Xk.x 9 r s p J OXuXuXuX=XJ p s t k c r.4XwXqXA.i.s.",
"f.s.d.3.8XeX*X,.s ( ^ ^ ~ . V 0XuX0XY . ~ ^ ^ ( d >.*XeXqXA.5.s.",
"s.s.d.3.=X6X|.- s c h v j a n 1XuX1Xn a x v h c d @ }.6X;X9.i.s.",
"s.s.d.2.'.OX(.< a a : r r 4 M R.8XE.M 4 r r : a a > (.OX'.9.d.s.",
"s.s.d.2._.'.^.;.t a % e q q z O.:XO.J 0 q e w a t &.T.'._.w.a.s.",
"s.s.d.2./._.^.> r p e i j a b +X#X@XL s j i w p t ; J._./.9.a.s.",
"s.s.f.1.(._.J.> % b L L v g ~ @X%.@X^ y K L T b w ; J._._.3.d.s.",
"s.s.5.D.].}.!.< # r $ O o + ` $.@X$.` +   O $ r # < W. X].F.5.s.",
"a.h.<.[..X.XXX,.* > f A ..o.%.%.#.%.%.o...A f > = >.XX.X.X[.<.s.",
"s.a.-.L.).W.`.U W { [ o.$.%.@.@.#.@.@.%.$.o.[ { W U ).W.).I.=.a.",
"s.7.N H R P I ' ` ] [ X.X.[ +.+.[ +.+.[ X.X.X.[ ` ' P P R H N 7.",
"s.s.q.q.G.q.e.J.J.I.K.K.P.P.H.I.P.P.J.P.K.K.P.P.J.J.e.e.G.q.q.8.",
"s.s.i.i.i.i.i.u.u.6.u.u.6.u.u.6.6.u.u.u.6.u.u.6.u.u.i.i.i.i.i.f.",
"f.s.s.s.s.s.s.s.s.s.f.f.f.f.f.f.s.s.f.s.s.f.f.f.f.s.s.s.s.s.s.s."
};
