/* XPM */
static char *_af29bf8459a424ac519e3916398958aZKHoG2xMOdGs56rq[] = {
/* columns rows colors chars-per-pixel */
"32 32 30 1 ",
"  c #352E27",
". c #372F29",
"X c #373029",
"o c #39312A",
"O c #3B332C",
"+ c #3B342C",
"@ c #3D352D",
"# c #403730",
"$ c #403830",
"% c #443B33",
"& c #453C33",
"* c #463D34",
"= c #493F36",
"- c #494037",
"; c #4B4138",
": c #4C4238",
"> c #4E443A",
", c #50453B",
"< c #50463C",
"1 c #53483E",
"2 c #755338",
"3 c #296640",
"4 c #63564A",
"5 c #65574B",
"6 c #65584B",
"7 c #66584C",
"8 c #685A4E",
"9 c #9D7658",
"0 c #509B66",
"q c #69B57F",
/* pixels */
"@=<>:>>@-<>>-:::<:::>:<>@:>>;-<@",
":@:$o>@::>:>::>>;:>:>:>,-@->>:@:",
"<:@::.-->;:.O>,>>@+oo>::;:>; @:;",
">o<>><@>>>@>,.::X>1>*o;>:<>.>>@:",
"@,<:>$o$:$o<:.$>o:<1:=@<-:o,:$@$",
"@&<<**O%:$@%%@@;@=:::$o::@.*=*o&",
"@o*$=+O$-:$$@%<>$@$==O$:>@$$%#o:",
"@@@#$@*@:-=:>:<>:$#$@%::@::>:::@",
"00000000000000000000000000000000",
"0qq0000000000qq000000q000000q000",
"33qq00000000qqq00000qq33000qq330",
"033q00000qq0qq330qq0q330000q3qq0",
"00000qq033qqq3300qqq00000000qqq0",
"0000qqq0003q000033qq00000000qq33",
"0000qq3300000000033q00000000q330",
"0000q330000000000000000000000300",
":>:<>:>>=:>::;::>:445:::>>=575>*",
";::::->:<:;::<:;-:547,>:<-7><>6:",
",:>75,>:->57:@:-57@;<44:>:5<<:4>",
":>6<>5:::7>7@57:441@147;>:$584$=",
">>6<>4>>=55o7,>475,<@44>:;:$$$::",
":>@56@,-:$o:5<:7$$874o#>>:>>>:>:",
":;:%%;:>;@::%44*<:674>@::>:;<><:",
":>>:><;:@::<;$%:>;$&@;:@:::>;=::",
"99999999999999999999999999999999",
"99999999999999999229999999999229",
"99999922999229999229999999229229",
"92229922992222999999222992222999",
"22222999992222999992222292222999",
"22222999299229999992222299229999",
"92229999999999229999222999999999",
"99999999999999229999999999999999"
};
