/* XPM */
static char *_f29806b2a6f4d14eba18b38e7295530DL5AjMUV31IVaane[] = {
/* columns rows colors chars-per-pixel */
"32 32 181 2 ",
"   c None",
".  c black",
"X  c #0D0000",
"o  c #1F0900",
"O  c #00001E",
"+  c #240000",
"@  c #2B0000",
"#  c #2D1200",
"$  c #00002A",
"%  c #000023",
"&  c #3D272A",
"*  c #2E2C3E",
"=  c #401900",
"-  c #773B00",
";  c #513534",
":  c #693826",
">  c #7D4800",
",  c #524B3F",
"<  c #684534",
"1  c #744935",
"2  c #754633",
"3  c #7F4D25",
"4  c #00294B",
"5  c #2D385A",
"6  c #333F5D",
"7  c #002A76",
"8  c #003865",
"9  c #322F63",
"0  c #2F3367",
"q  c #2F3C7F",
"w  c #413948",
"e  c #593C42",
"r  c #005C4E",
"t  c #33415F",
"y  c #3A6851",
"u  c #2B466C",
"i  c #27476D",
"p  c #36486A",
"a  c #344362",
"s  c #364D73",
"d  c #39547F",
"f  c #2E4B72",
"g  c #635C46",
"h  c #715254",
"j  c #445678",
"k  c #765A69",
"l  c #624666",
"z  c #5F7E78",
"x  c #884E13",
"c  c #AD5B00",
"v  c #BA6B00",
"b  c #8B563B",
"n  c #955B35",
"m  c #C17200",
"M  c #C77939",
"N  c #C36B2E",
"B  c #E16F3B",
"V  c #936849",
"C  c #A1684B",
"Z  c #BF6F45",
"A  c #BE794A",
"S  c #916862",
"D  c #96747C",
"F  c #9B7679",
"G  c #88696F",
"H  c #A6766D",
"J  c #B87D68",
"K  c #C96C40",
"L  c #C37843",
"P  c #E97D45",
"I  c #009553",
"U  c #0E9453",
"Y  c #008760",
"T  c #009462",
"R  c #59885D",
"E  c #69875C",
"W  c #759156",
"Q  c #70877A",
"!  c #F19016",
"~  c #D58337",
"^  c #E3892D",
"/  c #F4953B",
"(  c #EA8F37",
")  c #819658",
"_  c #BA844F",
"`  c #CD8349",
"'  c #D68344",
"]  c #D2854A",
"[  c #DE894C",
"{  c #DB8744",
"}  c #C38856",
"|  c #D38F52",
" . c #E38A4B",
".. c #E38D45",
"X. c #E7914E",
"o. c #EA924F",
"O. c #F1944C",
"+. c #EC9451",
"@. c #E29B55",
"#. c #F29650",
"$. c #F59952",
"%. c #DD916A",
"&. c #C88A77",
"*. c #D38E72",
"=. c #DC9372",
"-. c #2B3B80",
";. c #005084",
":. c #395580",
">. c #3C5987",
",. c #344498",
"<. c #3C6899",
"1. c #324DBF",
"2. c #3057BF",
"3. c #0072B3",
"4. c #037ABB",
"5. c #006FAD",
"6. c #3E74AB",
"7. c #387AB7",
"8. c #2E71AF",
"9. c #415D83",
"0. c #53718C",
"q. c #4B6995",
"w. c #6E7398",
"e. c #4466A7",
"r. c #4576AE",
"t. c #5D77A6",
"y. c #427CB8",
"u. c #2751C5",
"i. c #3255C5",
"p. c #355CD6",
"a. c #027FC2",
"s. c #2E6DC5",
"d. c #226EC5",
"f. c #3660D7",
"g. c #337FCC",
"h. c #897282",
"j. c #008988",
"k. c #1B8887",
"l. c #278787",
"z. c #3F81BF",
"x. c #4081BF",
"c. c #7C83AC",
"v. c #6586BC",
"b. c #7889BA",
"n. c #0082C7",
"m. c #3A83C3",
"M. c #3783C8",
"N. c #3C8DD4",
"B. c #3C94E3",
"V. c #389BEB",
"C. c #3BA1F3",
"Z. c #4284C2",
"A. c #458CCF",
"S. c #438CD2",
"D. c #488ED4",
"F. c #4A94DB",
"G. c #5A9BD7",
"H. c #5089C7",
"J. c #638CCE",
"K. c #6B91CF",
"L. c #6795D5",
"P. c #4D96E0",
"I. c #4C9AE5",
"U. c #4B9DEB",
"Y. c #439AE9",
"T. c #559DE4",
"R. c #44A1EE",
"E. c #55A3EC",
"W. c #5BA6EA",
"Q. c #55A8F3",
"!. c #4BA2F1",
"~. c #6CB5F6",
"^. c #66B1F5",
"/. c #98859F",
"(. c #B98B8C",
"). c #8485AC",
"_. c #8488B1",
"`. c #A38BA2",
"'. c #81BEE8",
"]. c #81C7F9",
"[. c #84CBFE",
/* pixels */
"                                                                ",
"                                                                ",
"                    @ @ @ + X X + @ @ + X X + @                 ",
"                    s >.:.9.0.0.9.d d 9.0.0.9.u                 ",
"                + 6 y.F.S.G.'.'.G.g.M.G.'.'.T.8.5 +             ",
"                6 r.P.!.U.^.[.[.~.Q.U.Q.[.[.~.W.r.5             ",
"            + a y.P.I.U.I.U.W.~.[.].W.I.W.~.[.].W.7.f @         ",
"            * e.F.!.U.I.I.Y.B.E.].].W.B.B.E.].[.^.D.>.@         ",
"        @ 6 <.Z.P.E.U.I.Y.V.V.R.Q.Q.R.V.V.R.W.W.Q.D.:.@         ",
"        @ s 6.A.F.P.U.T.L.K.K.K.J.J.K.K.K.L.P.Y.U.D.d @         ",
"        @ p 6.Z.Z.S.V.L./.H F D D D D F H /.L.C.!.D.d @         ",
"        @ p 6.Z.7.z.N.v.S c v m m m m v c S v.B.U.D.:.@         ",
"        @ p 6.Z.x.y.<.j w x M ..{ { ..M x w j r.P.F.>.@         ",
"        @ p 6.m.m.t.G 3 $ < ] $.+.+.$.] < % > h.L.N.d @         ",
"        @ p 6.m.a.c.&.N & ; ` #.o.o.#.` ; & N &.b.4.f @         ",
"        @ p 6.m.a.).=.^ n b ] +.X.X.+.] b n ^ =._.5.i @         ",
"        @ p 6.m.a.).*.( ' ]  .o.X.X.o. .] ' ! %._.3.u @         ",
"        @ p 6.m.a.c.*./ O.+.o.X.X.X.X.o.O.+.%.(.b.3.u @         ",
"        @ p 6.m.n._.=./ O.o.o.X.X.o.o.O./ =.`.v.H.7.s @         ",
"        @ p 6.m.3.w.J ~ ` ] [  . .[ ] ` ~ J t.3.8.<.t @         ",
"        @ s y.7.;.4 ; < g V K B B K V g < e a i s t             ",
"        @ a 8.q.h - : , r y C Z Z C y r , : = + @ @             ",
"            8 k A ' ' _ E Y R E E R Y E } L 2 O                 ",
"            . x { $.O.| W T T T T T T ) @. .b $                 ",
"            % b [ $.P L W I I U U I I ) @. .b $                 ",
"            $ 1 A ' N C z j.k.l.l.k.j.Q } M 2 $                 ",
"                1 b - l e.d.s.s.s.s.d.e.k >                     ",
"                $ O . 7 u.p.i.1.1.i.p.u.7 .                     ",
"                    o q p.f.,.9 9 ,.f.p.-.o                     ",
"                    # 0 i.2.9 @ @ 9 2.i.0 #                     ",
"                                                                ",
"                                                                "
};
