/* XPM */
static char *_7c6607d41f744edca51818789a6e089Tgcgr44rDzjmaqqR[] = {
/* columns rows colors chars-per-pixel */
"32 32 151 2 ",
"   c None",
".  c black",
"X  c #000001",
"o  c #040000",
"O  c #060000",
"+  c #0A0000",
"@  c #0A0003",
"#  c #0B0003",
"$  c #1A0B0D",
"%  c #1B0D0D",
"&  c #050511",
"*  c #0C0611",
"=  c #160D13",
"-  c #120C14",
";  c #28130B",
":  c #2F1A0F",
">  c #261611",
",  c #2D1910",
"<  c #2E1A11",
"1  c #2F1C14",
"2  c #2B1C1A",
"3  c #301D13",
"4  c #342015",
"5  c #352015",
"6  c #352116",
"7  c #362217",
"8  c #382317",
"9  c #35221A",
"0  c #35231A",
"q  c #35231B",
"w  c #36221A",
"e  c #36231A",
"r  c #392418",
"t  c #39251A",
"y  c #39251B",
"u  c #3C271B",
"i  c #422A1C",
"p  c #422B1E",
"a  c #442C1F",
"s  c #442D1F",
"d  c #452E1F",
"f  c #462E1F",
"g  c #472F1F",
"h  c #482F1F",
"j  c #48301F",
"k  c #462E20",
"l  c #453023",
"z  c #483021",
"x  c #4A3121",
"c  c #4B3221",
"v  c #4B3321",
"b  c #483122",
"n  c #493122",
"m  c #4A3122",
"M  c #4A3222",
"N  c #4C3422",
"B  c #4C3324",
"V  c #4F3624",
"C  c #4F392A",
"Z  c #503623",
"A  c #503624",
"S  c #513725",
"D  c #523725",
"F  c #533926",
"G  c #523927",
"H  c #533927",
"J  c #543A26",
"K  c #543A27",
"L  c #553A27",
"P  c #543B27",
"I  c #543A28",
"U  c #553A28",
"Y  c #553B29",
"T  c #583D29",
"R  c #5A3F2B",
"E  c #5B3F2B",
"W  c #5B402B",
"Q  c #5C402C",
"!  c #5D402C",
"~  c #5C402D",
"^  c #5D412D",
"/  c #5F412C",
"(  c #5D422D",
")  c #60432C",
"_  c #60432D",
"`  c #61432D",
"'  c #62442E",
"]  c #63452E",
"[  c #64462F",
"{  c #614530",
"}  c #624530",
"|  c #674830",
" . c #624835",
".. c #674A35",
"X. c #684A34",
"o. c #684B35",
"O. c #6A4B35",
"+. c #704F36",
"@. c #6F5039",
"#. c #6D503B",
"$. c #715036",
"%. c #735237",
"&. c #745337",
"*. c #71523A",
"=. c #745338",
"-. c #76553B",
";. c #77553B",
":. c #72543E",
">. c #77563C",
",. c #78563C",
"<. c #775841",
"1. c #7A5A40",
"2. c #7B5A41",
"3. c #795A43",
"4. c #7A5A43",
"5. c #7C5B41",
"6. c #7E5E45",
"7. c #7F5E45",
"8. c #836046",
"9. c #836146",
"0. c #836047",
"q. c #846045",
"w. c #846145",
"e. c #866146",
"r. c #836249",
"t. c #886448",
"y. c #896448",
"u. c #8B6648",
"i. c #8B6649",
"p. c #8C6649",
"a. c #8C6749",
"s. c #8C674A",
"d. c #8E694D",
"f. c #8E6A4D",
"g. c #967052",
"h. c #977052",
"j. c #977053",
"k. c #977153",
"l. c #987153",
"z. c #997153",
"x. c #997253",
"c. c #997254",
"v. c #9A7254",
"b. c #9B7355",
"n. c #9C7455",
"m. c #9C7658",
"M. c #A27A5B",
"N. c #A37A5B",
"B. c #A37B5D",
"V. c #A47B5C",
"C. c #A87E5E",
/* pixels */
"      l               l               l               l         ",
"    1.l.t.c.K       1.l.t.c.U       1.l.t.c.U       1.l.t.c.K   ",
"  + e.c.a.j.S     + e.c.a.j.c     X e.c.a.j.c     X e.c.a.j.S   ",
"    < W { S +       < W { h C 1.:.#.7 T { h C 1.:.#.7 T { S +   ",
"    7 *.0.'         7 *.0.T U ,.X.>.p #.0.T U ,.X.>.p #.0.'     ",
"    ; 7.B.B >       ; 7.N.c 7 8 Z N : 7.N.c 7 8 Z N : 7.V.B >   ",
"    X <.m.t =       X <.m.t *       X <.m.t *       X <.m.t =   ",
"      1.C.2           1.C.2           1.C.2           1.C.2     ",
"       .r.1            .r.1            .r.1            .r.1     ",
"    1.f.5.l.K       1.f.5.l.K       1.f.5.l.K       1.f.5.l.K   ",
"  + e.l.a.j.S     + e.l.a.j.c     X e.l.a.j.c     X e.l.a.j.S   ",
"    < W { S +       < W { h C 1.:.#.7 T { h C 1.:.#.7 T { S +   ",
"    7 *.0.'         7 *.0.T U ,.X.>.p #.0.T U ,.X.>.p #.0.'     ",
"    ; 7.B.B >       ; 7.N.c 7 8 Z N : 7.N.c 7 8 Z N : 7.V.B >   ",
"    X <.m.t =       X <.m.t *       X <.m.t *       X <.m.t =   ",
"      1.C.2           1.C.2           1.C.2           1.C.2     ",
"       .r.1            .r.1            .r.1            .r.1     ",
"    1.f.5.l.G       1.f.5.l.K       1.f.5.l.K       1.f.5.l.K   ",
"  O e.l.a.j.S     + e.l.t.j.c     X e.l.t.j.c     X e.l.t.j.S   ",
"    < ( X.S X       < ( X.j C 1.:.#.7 ( X.j C 1.:.#.7 ( ..S +   ",
"    u | ) (         u | ) K U ,.X.;.a [ ) K U ,.X.;.a [ ) (     ",
"    a $.=.| $       a $.&.' 3 t Z a c +.$.' 3 t Z a c +.=.| %   ",
"    e a ( c -       e a ( c &       e a ( c &       e a ( c -   ",
"                                                                ",
"                                                                ",
"    1.l.t.c.G       1.l.t.c.U       1.l.t.c.U       1.l.t.n.G   ",
"  O e.l.t.j.S     + e.l.t.j.c     X e.c.t.j.c     X e.c.t.j.S   ",
"    < ( X.S X       < ( X.j C 1.:.#.7 ( X.j C 1.:.#.7 ( ..S +   ",
"    u | ) (         u | ) K U ,.X.;.a [ ) K U ,.X.;.k [ ) (     ",
"    a $.=.| $       a $.&.' 3 t Z a c +.$.' 3 t V a c +.=.| %   ",
"    e p T c -       e p T c &       e p T c &       e p T c -   ",
"                                                                "
};
