/* XPM */
static char *_701558513186[] = {
/* columns rows colors chars-per-pixel */
"77 98 214 2 ",
"   c gray4",
".  c #0B0B0B",
"X  c #0C0C0C",
"o  c gray5",
"O  c #0E0E0E",
"+  c gray6",
"@  c #101010",
"#  c #111111",
"$  c gray7",
"%  c #131313",
"&  c gray8",
"*  c #151515",
"=  c #161616",
"-  c gray9",
";  c #181818",
":  c #191919",
">  c gray10",
",  c #1B1B1B",
"<  c gray11",
"1  c #1D1D1D",
"2  c #1E1E1E",
"3  c gray12",
"4  c #202020",
"5  c gray13",
"6  c #222222",
"7  c #232323",
"8  c gray14",
"9  c #252525",
"0  c gray15",
"q  c #272727",
"w  c #282828",
"e  c gray16",
"r  c gray17",
"t  c #2C2C2C",
"y  c #2D2D2D",
"u  c gray18",
"i  c #2F2F2F",
"p  c gray19",
"a  c #313131",
"s  c #323232",
"d  c gray20",
"f  c #343434",
"g  c #353535",
"h  c gray21",
"j  c #373737",
"k  c #3A3A3A",
"l  c gray23",
"z  c #3C3C3C",
"x  c gray24",
"c  c #3F3F3F",
"v  c gray25",
"b  c #414141",
"n  c gray26",
"m  c #434343",
"M  c gray27",
"N  c #464646",
"B  c gray28",
"V  c #484848",
"C  c #494949",
"Z  c gray29",
"A  c #4B4B4B",
"S  c #4C4C4C",
"D  c gray30",
"F  c gray31",
"G  c #505050",
"H  c gray32",
"J  c #535353",
"K  c gray33",
"L  c #555555",
"P  c #565656",
"I  c #585858",
"U  c gray35",
"Y  c #5A5A5A",
"T  c gray36",
"R  c #5D5D5D",
"E  c #5F5F5F",
"W  c #606060",
"Q  c gray38",
"!  c #626262",
"~  c gray39",
"^  c #646464",
"/  c #656565",
"(  c gray40",
")  c #676767",
"_  c #686868",
"`  c DimGray",
"'  c #6A6A6A",
"]  c #6C6C6C",
"[  c #6D6D6D",
"{  c gray43",
"}  c #6F6F6F",
"|  c gray44",
" . c #717171",
".. c gray45",
"X. c #747474",
"o. c #767676",
"O. c #777777",
"+. c gray47",
"@. c #797979",
"#. c #7B7B7B",
"$. c #7C7C7C",
"%. c gray49",
"&. c #7E7E7E",
"*. c gray50",
"=. c #808080",
"-. c gray51",
";. c #838383",
":. c #848484",
">. c gray52",
",. c #868686",
"<. c gray53",
"1. c #888888",
"2. c #898989",
"3. c #8B8B8B",
"4. c gray55",
"5. c gray56",
"6. c #909090",
"7. c gray57",
"8. c #929292",
"9. c #939393",
"0. c gray58",
"q. c #959595",
"w. c gray59",
"e. c #979797",
"r. c #989898",
"t. c gray60",
"y. c #9A9A9A",
"u. c #9B9B9B",
"i. c #9D9D9D",
"p. c #9F9F9F",
"a. c gray63",
"s. c #A4A4A4",
"d. c gray65",
"f. c #A7A7A7",
"g. c gray66",
"h. c #A9A9A9",
"j. c #ACACAC",
"k. c gray68",
"l. c #AEAEAE",
"z. c #AFAFAF",
"x. c gray69",
"c. c #B2B2B2",
"v. c gray70",
"b. c #B4B4B4",
"n. c gray71",
"m. c #B6B6B6",
"M. c #B7B7B7",
"N. c gray72",
"B. c #B9B9B9",
"V. c gray73",
"C. c #BBBBBB",
"Z. c gray74",
"A. c gray",
"S. c gray75",
"D. c #C0C0C0",
"F. c #C1C1C1",
"G. c gray76",
"H. c #C3C3C3",
"J. c gray77",
"K. c #C6C6C6",
"L. c gray78",
"P. c #C8C8C8",
"I. c gray79",
"U. c #CACACA",
"Y. c #CBCBCB",
"T. c gray80",
"R. c #CDCDCD",
"E. c #CECECE",
"W. c #D0D0D0",
"Q. c gray82",
"!. c #D2D2D2",
"~. c LightGray",
"^. c gray83",
"/. c #D5D5D5",
"(. c gray84",
"). c #D7D7D7",
"_. c gray85",
"`. c #DADADA",
"'. c gray86",
"]. c gainsboro",
"[. c #DDDDDD",
"{. c gray87",
"}. c #DFDFDF",
"|. c #E1E1E1",
" X c #E2E2E2",
".X c gray89",
"XX c #E4E4E4",
"oX c gray90",
"OX c #E6E6E6",
"+X c #E7E7E7",
"@X c gray91",
"#X c #E9E9E9",
"$X c #EAEAEA",
"%X c gray92",
"&X c #ECECEC",
"*X c gray93",
"=X c #EEEEEE",
"-X c #EFEFEF",
";X c gray94",
":X c #F1F1F1",
">X c gray95",
",X c #F3F3F3",
"<X c #F4F4F4",
"1X c gray96",
"2X c #F6F6F6",
"3X c gray97",
"4X c #F8F8F8",
"5X c #F9F9F9",
"6X c gray98",
"7X c #FBFBFB",
"8X c gray99",
"9X c #FDFDFD",
"0X c #FEFEFE",
"qX c white",
/* pixels */
"qXqXqXqXqXqXqXqXqXqXqXqXqXqXqXqXqXqXqXqXqXqXqXqXqXqXqXqXqXqXqXqXqXqXqXqXqXqXqXqXqXqXqXqXqXqXqXqXqXqXqXqXqXqXqXqXqXqXqXqXqXqXqXqXqXqXqXqXqXqXqXqXqXqXqXqXqX",
"qXqXqXqXqXqXqXqXqXqXqXqXqXqXqXqXqXqXqXqXqXqXqXqXqXqXqXqXqXqXqXqXqXqXqXqXqXqXqXqXqXqXqXqXqXqXqXqXqXqXqXqXqXqXqXqXqXqXqXqXqXqXqXqXqXqXqXqXqXqXqXqXqXqXqXqXqX",
"qXqXqXqXqXqXqXqXqXqXqXqXqXqXqXqXqXqXqXqXqXqXqXqXqXqXqXqXqXqXqXqXqXqXqXqXqXqXqXqXqXqXqXqXqXqXqXqXqXqXqXqXqXqXqXqXqXqXqXqXqXqXqXqXqXqXqXqXqXqXqXqXqXqXqXqXqX",
"qXqXqXqXqXqXqXqXqXqXqXqXqXqXqXqXqXqXqXqXqXqXqXqXqXqXqXqXqXqXqXqXqXqXqXqXqXqXqXqXqXqXqXqXqXqXqXqXqXqXqXqXqXqXqXqXqXqXqXqXqXqXqXqXqXqXqXqXqXqXqXqXqXqXqXqXqX",
"qXqXqXqXqXqXqXqXqXqXqXqXqXqXqXqXqXqXqXqXqXqXqXqXqXqXqXqXqXqXqXqXqXqXqXqXqXqXqXqXqXqXqXqXqXqXqXqXqXqXqXqXqXqXqXqXqXqXqXqXqXqXqXqXqXqXqXqXqXqXqXqXqXqXqXqXqX",
"qXqXqXqXqXqXqXqXqXqXqXqXqXqXqXqXqXqXqXqXqXqXqXqXqXqXqXqXqXqXqXqXqXqXqXqXqXqXqXqXqXqXqXqXqXqXqXqXqXqX9XqXqX9XqXqXqXqXqXqXqXqXqXqXqXqXqXqXqXqXqXqXqXqXqXqXqX",
"qXqXqXqXqXqXqXqXqXqXqXqXqXqXqXqXqXqXqXqXqXqXqXqXqXqXqXqXqXqXqXqXqXqXqXqXqXqXqXqXqXqXqXqXqXqXqXqX0X7X9X5X4X8X8X8XqXqXqXqXqXqXqXqXqXqXqXqXqXqXqXqXqXqXqXqXqX",
"qXqXqXqXqXqXqXqXqXqXqXqXqXqXqXqXqXqXqXqXqXqXqXqXqXqXqXqXqXqXqXqXqXqXqXqXqXqXqXqXqXqXqXqXqXqXqXqXqX7X8X9X7X8X9X9XqXqXqXqXqXqXqXqXqXqXqXqXqXqXqXqXqXqXqXqXqX",
"qXqXqXqXqXqXqXqXqXqXqXqXqXqXqXqXqXqXqXqXqXqXqXqXqXqXqXqXqXqXqXqXqXqXqXqXqXqXqXqXqXqXqXqXqXqXqXqXqX9X0X9XQ.c.f.>XqXqXqXqXqXqXqXqXqXqXqXqXqXqXqXqXqXqXqXqXqX",
"qXqXqXqXqXqXqXqXqXqXqXqXqXqXqXqXqXqXqXqXqXqXqXqXqXqXqXqXqXqXqXqXqXqXqXqXqXqXqXqXqX0X0XqX0X7XqXqXqX@X4.i 1 - w oXqXqXqXqXqXqXqXqXqXqXqXqXqXqXqXqXqXqXqXqXqX",
"qXqXqXqXqXqXqXqXqXqXqXqXqXqXqXqXqXqXqXqXqXqXqXqXqXqXqXqXqXqXqXqXqXqXqXqXqXqXqXqXqXqX7X0X8X8X5X}.=.<   - - = 0 oXqXqXqXqXqXqXqXqXqXqXqXqXqXqXqXqXqXqXqXqXqX",
"qXqXqXqXqXqXqXqXqXqXqXqXqXqXqXqXqXqXqXqXqXqXqXqXqXqXqXqXqXqXqXqXqXqXqXqXqXqXqXqXqXqXqX8X8X.Xr.z @ = - = ; * w OXqXqXqXqXqXqXqXqXqXqXqXqXqXqXqXqXqXqXqXqXqX",
"qXqXqXqXqXqXqXqXqXqXqXqXqXqXqXqXqXqXqXqXqXqXqXqXqXqXqXqXqXqXqXqXqXqXqXqXqX9X9XqXqX0X0X0XW.R 1 + ; - - - ; # d #XqXqXqXqXqXqXqXqXqXqXqXqXqXqXqXqXqXqXqXqXqX",
"qXqXqXqXqXqXqXqXqXqXqXqXqXqXqXqXqXqXqXqXqXqXqXqXqXqXqXqXqXqXqXqXqXqXqXqXqXqXqX6X8X9XqXJ.d # - - - - - - - $ L ;XqXqXqXqXqXqXqXqXqXqXqXqXqXqXqXqXqXqXqXqXqX",
"qXqXqXqXqXqXqXqXqXqXqXqXqXqXqXqXqXqXqXqXqXqXqXqXqXqXqXqXqXqXqXqXqXqXqXqXqXqX7X8XqX9XH.p X - - - - - - - = = $.2XqXqXqXqXqXqXqXqXqXqXqXqXqXqXqXqXqXqXqXqXqX",
"qXqXqXqXqXqXqXqXqXqXqXqXqXqXqXqXqXqXqXqXqXqXqXqXqXqXqXqXqXqXqXqXqXqXqXqXqXqXqX0X9X/.V @ - - - - - - - - & 7 k.5XqXqXqXqXqXqXqXqXqXqXqXqXqXqXqXqXqXqXqXqXqX",
"qXqXqXqXqXqXqXqXqXqXqXqXqXqXqXqXqXqXqXqXqXqXqXqXqXqXqXqXqXqXqXqXqXqXqXqXqXqX8X8X;X( # - - - - - - - - - : x ).7XqXqXqXqXqXqXqXqXqXqXqXqXqXqXqXqXqXqXqXqXqX",
"qXqXqXqXqXqXqXqXqXqXqXqXqXqXqXqXqXqXqXqXqXqXqXqXqXqXqXqXqXqXqXqXqXqXqXqXqX0X8X0Xf.& - - - - - - - - - - @ +.1X8XqXqXqXqXqXqXqXqXqXqXqXqXqXqXqXqXqXqXqXqXqX",
"qXqXqXqXqXqXqXqXqXqXqXqXqXqXqXqXqXqXqXqXqXqXqXqXqXqXqXqXqXqXqXqXqXqXqXqXqXqX7XoXg + - - - - - - - - - = 6 I.7X7XqXqXqXqXqXqXqXqXqXqXqXqXqXqXqXqXqXqXqXqXqX",
"qXqXqXqXqXqXqXqXqXqXqXqXqXqXqXqXqXqXqXqXqXqXqXqXqXqXqXqXqXqXqXqXqXqXqXqXqXqX6X,.  ; - - - - - - - ; -   @.3X9X6XqXqXqXqXqXqXqXqXqXqXqXqXqXqXqXqXqXqXqXqXqX",
"qXqXqXqXqXqXqXqXqXqXqXqXqXqXqXqXqXqXqXqXqXqXqXqXqXqXqXqXqXqXqXqXqXqXqXqXqXqX].y % - - - - - - - - ; # j OXqXqX0XqXqXqXqXqXqXqXqXqXqXqXqXqXqXqXqXqXqXqXqXqX",
"qXqXqXqXqXqXqXqXqXqXqXqXqXqXqXqXqXqXqXqXqXqXqXqXqXqXqXqXqXqXqXqXqXqXqXqXqXqXi.& > - - - - - - - - * e D.qXqXqXqXqXqXqXqXqXqXqXqXqXqXqXqXqXqXqXqXqXqXqXqXqX",
"qXqXqXqXqXqXqXqXqXqXqXqXqXqXqXqXqXqXqXqXqXqXqXqXqXqXqXqXqXqXqXqXqXqXqXqXqX1X' : - - - - - - - - * ; 8.3X6XqXqXqXqXqXqXqXqXqXqXqXqXqXqXqXqXqXqXqXqXqXqXqXqX",
"qXqXqXqXqXqXqXqXqXqXqXqXqXqXqXqXqXqXqXqXqXqXqXqXqXqXqXqXqXqXqXqXqXqXqX0XqX XV - - - - - - - - = - &.*X4XqXqXqXqXqXqXqXqXqXqXqXqXqXqXqXqXqXqXqXqXqXqXqXqXqX",
"qXqXqXqXqXqXqXqXqXqXqXqXqXqXqXqXqXqXqXqXqXqXqXqXqXqXqXqXqXqXqXqXqXqXqX0XqXW.h = - - - - - : $ t 2.-X7X0XqXqXqXqXqXqXqXqXqXqXqXqXqXqXqXqXqXqXqXqXqXqXqXqXqX",
"qXqXqXqXqXqXqXqXqXqXqXqXqXqXqXqXqXqXqXqXqXqXqXqXqXqXqXqXqXqXqXqXqXqXqXqXqXA.7 = - ; ; - ; O m V.3X7X6X8XqXqXqXqXqXqXqXqXqXqXqXqXqXqXqXqXqXqXqXqXqXqXqXqXqX",
"qXqXqXqXqXqXqXqXqXqXqXqXqXqXqXqXqXqXqX0XqXqXqXqXqXqXqXqXqXqXqXqXqXqXqX8X9XB.3 & = = * # 7 O.OX0X8X8X8X8X8XqXqXqXqXqXqXqXqXqXqXqXqXqXqXqXqXqXqXqXqXqXqXqXqX",
"qXqXqXqXqXqXqXqXqXqXqXqXqXqXqXqX0XqX9X7X0X9X0X9X0X0XqXqX0X0XqXqXqXqX0X8X0XS.y > 6 s F >.^.9X9X6X8X0XqX9X9XqXqXqX0X0X0X0XqX0X9XqXqXqXqXqXqXqXqXqXqXqXqXqXqX",
"qXqXqXqXqXqXqXqXqXqXqXqXqXqXqXqX0X9X8XqX8X0X0X9X0X0XqXqX0X0X0XqXqXqXqX8X0XOXj.h.M.I.OX3X8X5X7X9X7X0XqX7X>X>X>X>X0XqXqX0XqX9XqXqXqXqXqXqXqXqXqXqXqXqXqXqXqX",
"qXqXqXqXqXqXqXqXqXqXqXqXqXqXqXqXqXqXqX6X$XF.y.,.:.2.0.P.;X9XqXqXqXqXqXqXqX8X8X8X9X6X8X0X8X7X0XqX:Xm.7.{ L D G H =.r.P.,XqXqXqXqXqXqXqXqXqXqXqXqXqXqXqXqXqX",
"qXqXqXqXqXqXqXqXqXqXqXqXqXqXqX9X>X/.7.A                 6 T v.oX2X9XqX9X0X9X9X7X0X8X7X9X1XXXl.Q $       . @   $       8 ! b.+X5XqXqX0XqXqXqXqXqXqXqXqXqXqX",
"qXqXqXqXqXqXqXqXqX0X9X7XqX8X+Xb.^ 2 O o - - - - - - - - & O O r +.z.}.2X9X0X8X5X7X2X'.b. .i O o - - - - - - - - - - - = O o j 4.(.4X5X9XqX0X0XqXqXqXqXqXqX",
"qXqXqXqXqXqXqXqXqX9X0X8X8XK.E w % - ; - - - - - - - - - - - - * * 2 A ;.B.}.=XOXB.;.N 6 $ & - : - - - - - - - - - - - = - - & : b i.%X0X9X0X0XqXqXqXqXqXqX",
"qXqXqXqXqXqXqXqXqX8X8X6Xh., * - - - - > - - - - - - - - - - - - - - = $ ; 5 8 6 : % - = - : - - > - - - - - - - - - - > - - - - > : ..,X8X0X0XqXqXqXqXqXqX",
"qXqXqXqXqX0X8XqXqX0X,X<.X = ; , - - - - - - - - - - - - - - - ; ; - - - - ; - - - - - > - - - ; - - - - - - - - - - - - - - ; ; * : + Y $X9X9X0X0X0X0XqXqX",
"qXqXqXqXqX9X8X8X9XOXX.= - - - - - - - - - - - - - - - - - - - - - - - - - - - - - - - - - - - - - - - - - - - - - - - - - - - - - - - + P `.8X7X7X0XqXqXqX",
"qXqXqXqXqXqX0X7X:X&., : - - - - - - - - - - - - - - - - - - - - - - - - - - - - - - - - - - - - - - - - - - - - - - - - - - - - - - ; - - _ OX9X9X9XqXqXqX",
"qXqXqXqXqX0X0XqXp.* * - > - - - - - - - - - - - - - - - - - - - - - - - - - - - - - - - - - - - - - - - - - - - - - - - - - - - - - - - ; + i.8X0X7XqXqXqX",
"qXqXqXqXqX0X9XY.X - - - - - - - - - - - - - - - - - - - - - - - - - - - - - - - - - - - - - - - - - - - - - - - - - - - - - - ; - - ; - ; o.%XqXqXqXqXqXqX",
"qXqXqXqXqXqX|.B - - - - - - - - - - - - - - - - - - - - - - - - - - - - - - - - - - - - - - - - - - - - - - - - - - - - - - - - ; ; & t p.:X0XqXqXqXqXqXqX",
"qXqXqXqXqX4X5.- ; - - - - - - - - - - - - - - - - - - - - - - - - - - - - - - - - - - - - - - - - - - - - - - - - - - - - - - - : & s m.4X4X8XqXqXqXqXqXqX",
"qXqXqX9X6X_.n * ; - - - - - - - - - - - - - - - - - - - - - - - - - - - - - - - - - - - - - - - - - - - - - - - - - - - - - - - - w n.8X0X7X0XqXqXqXqXqXqX",
"qXqXqX8X6Xq.$ > > - - - - - - - - - - - - - - - - - - - - - - - - - - - - - - - - - - - - - - - - - - - - - - - - - - - - - - ; ; w.2XqXqXqXqXqXqXqXqXqXqX",
"qXqX0X9X-XK $ ; - - - - - - - - - - - - - - - - - - - - - - - - - - - - - - - - - - - - - - - - - - - - - - - - - - - - - - -   ] =X8XqXqXqXqXqXqXqXqXqXqX",
"qXqX0XqX~., = - - - - - - - - - - - - - - - - - - - - - - - - - - - - - - - - - - - - - - - - - - - - - - - - - - - - - - - $ i ].9X9XqXqXqXqXqXqXqXqXqXqX",
"qXqX9XqX2.O - - - - - - - - - - - - - - - - - - - - - - - - - - - - - - - - - - - - - - - - - - - - - - - - - - - - - > = ; @ j.0X0X8XqXqXqXqXqXqXqXqXqXqX",
"qXqX9X2XK + - - - - - - - - - - - - - - - - - - - - - - - - - - - - - - - - - - - - - - - - - - - - - - - - - - - - - = ; # b &X3X0X9XqXqXqXqXqXqXqXqXqXqX",
"qXqX8X[.4 - - - - - - - - - - - - - - - - - - - - - - - - - - - - - - - - - - - - - - - - - - - - - - - - - - - - - - - ; & 2.4X0X6X9XqXqXqXqXqXqXqXqXqXqX",
"qXqX8XN.. > - - - - - - - - - - - - - - - - - - - - - - - - - - - - - - - - - - - - - - - - - - - - - - - - - - - - - : * q Z.8XqX9X0XqXqXqXqXqXqXqXqXqXqX",
"qXqXqX2.  - - - - - - - - - - - - - - - - - - - - - - - - - - - - - - - - - - - - - - - - - - - - - - - - - - - - - - ; = n ].qXqXqXqXqXqXqXqXqXqXqXqXqXqX",
"qXqXqX}   : - - - - - - - - - - - - - - - - - - - - - - - - - - - - - - - - - - - - - - - - - - - - - - - - - - - - - = ; / ;XqXqXqXqXqXqXqXqXqXqXqXqXqXqX",
"qXqX9XU O - - - - - - - - - - - - - - - - - - - - - - - - - - - - - - - - - - - - - - - - - - - - - - - - - - - - - - = = &.2XqXqXqXqXqXqXqXqXqXqXqXqXqXqX",
"qXqX>XZ O - - - - - - - - - - - - - - - - - - - - - - - - - - - - - - - - - - - - - - - - - - - - - - - - - - - - - - = $ 9.6X0XqXqXqXqXqXqXqXqXqXqXqXqXqX",
"qXqX=XM $ - - - - - - - - - - - - - - - - - - - - - - - - - - - - - - - - - - - - - - - - - - - - - - - - - - - - - - - % y.qXqXqXqXqXqXqXqXqXqXqXqXqXqXqX",
"qXqX=XM & - - - - - - - - - - - - - - - - - - - - - - - - - - - - - - - - - - - - - - - - - - - - - - - - - - - - - - ; % y.qXqXqXqXqXqXqXqXqXqXqXqXqXqXqX",
"qXqX=XM * - - - - - - - - - - - - - - - - - - - - - - - - - - - - - - - - - - - - - - - - - - - - - - - - - - - - - - ; $ q.0XqXqXqXqXqXqXqXqXqXqXqXqXqXqX",
"qXqX=XN & - - - - - - - - - - - - - - - - - - - - - - - - - - - - - - - - - - - - - - - - - - - - - - - - - - - - - - - = &.5XqXqXqXqXqXqXqXqXqXqXqXqXqXqX",
"qXqX1XS . - - - - - - - - - - - - - - - - - - - - - - - - - - - - - - - - - - - - - - - - - - - - - - - - - - - - - - & > ! ;XqXqXqXqXqXqXqXqXqXqXqXqXqXqX",
"qXqX9XY   - - - - - - - - - - - - - - - - - - - - - - - - - - - - - - - - - - - - - - - - - - - - - - - - - - - - - - - = n ].qXqXqXqXqXqXqXqXqXqXqXqXqXqX",
"qXqXqX|   - - - - - - - - - - - - - - - - - - - - - - - - - - - - - - - - - - - - - - - - - - - - - - - - - - - - - - ; - y J.qX0X0XqXqXqXqXqXqXqXqXqXqXqX",
"qXqXqX4.  ; - - - - - - - - - - - - - - - - - - - - - - - - - - - - - - - - - - - - - - - - - - - - - - - - - - - - - ; - = 7.6X0X0X8X0XqXqXqXqXqXqXqXqXqX",
"qXqXqXg.  - - - - - - - - - - - - - - - - - - - - - - - - - - - - - - - - - - - - - - - - - - - - - - - - - - - - - - ; - $ C =X9X0X9XqXqXqXqXqXqXqXqXqXqX",
"qXqX7XT.o - - - - - - - - - - - - - - - - - - - - - - - - - - - - - - - - - - - - - - - - - - - - - - - - - - - - - - - ; - o V.qX8X0XqXqXqXqXqXqXqXqXqXqX",
"qX0X9X&Xt $ - - - - - - - - - - - - - - - - - - - - - - - - - - - - - - - - - - - - - - - - - - - - - - - - - - - - - - : ; $ l OX8XqXqXqXqXqXqXqXqXqXqXqX",
"qXqXqX4XJ O - - - - - - - - - - - - - - - - - - - - - - - - - - - - - - - - - - - - - - - - - - - - - - - - - - - - - - - - -   +.<X9XqXqXqXqXqXqXqXqXqXqX",
"qXqXqXqX<.O - - - - - - - - - - - - - - - - - - - - - - - - - - - - - - - - - - - - - - - - - - - - - - - - - - - - - - - - - = , d.7XqXqXqXqXqXqXqXqXqXqX",
"qX0X0X5XS.# - - - - - - - - - - - - - - - - - - - - - - - - - - - - - - - - - - - - - - - - - - - - - - - - - - - - - - - - - > = p D.9XqX0XqXqXqX0XqXqXqX",
"qXqX0X4X.Xh * - - - - - - - - - - - - - - - - - - - - - - - - - - - - - - - - - - - - - - - - - - - - - - - - - - - - - - - - - - & v F.5X5X7X8X7X6X0XqXqX",
"qX0X7X5X,X( $ ; - - - - - - - - - - - - - - - - - - - - - - - - - - - - - - - - - - - - - - - - - - - - - - - - - - - - - - - - ; = & a s.,X7X8X6X8X0XqXqX",
"qXqX0X0X9Xr.% - - - - - - - - - - - - - - - - - - - - - - - - - - - - - - - - - - - - - - - - - - - - - - - - - - - - - - - - ; & : ; = > O.@X8X8X9XqXqXqX",
"qXqX9X8XqXJ.e = < * - - - - - - - - - - - - - - - - - - - - - - - - - - - - - - - - - - - - - - - - - - - - - - - - - - - - - - - - - ; -   m N.;X8X9XqXqX",
"qXqXqXqXqX+XL - : - - - - - - - - - - - - - - - - - - - - - - - - - - - - - - - - - - - - - - - - - - - - - - - - - - - - - - - - - - - - - % < o.2XqXqXqX",
"qXqXqXqXqX7X6.- - ; - - - - - - - - - - - - - - - - - - - - - - - - - - - - - - - - - - - - - - - - - - - - - - - - - - - - - - - - - - - - :   1.7X9XqXqX",
"qXqXqXqXqXqXE.1 > - - - - - - - - - - - - - - - - - - - - - - - - - - - - - - - - - - - - - - - - - - - - - - - - - - - - - - - - - - - - - * ; !.qXqXqXqX",
"qXqXqXqXqX0X6X] ; * - - - - - - - - - - - - - - - - - - - - - - - - - - - - - - - - - - - - - - - - - - - - - - - - - - - - - - - - - - - - O ) 9XqXqXqXqX",
"qXqXqXqXqX0X0XH.- * - - - - - - - - - - - - - - - - - - - - - - - - - - - - - - - - - - - - - - - - - - - - - - - - - - - - - - - - - - - = - n.9XqXqXqXqX",
"qXqXqXqXqXqXqX3X^ O - - - - - - - - - - - - - - - - - - - - - - - - - - - - - - - - - - - - - - - - - - - - - - - - - - - - - - - - - - - $ F %X5X9X0XqXqX",
"qXqXqXqXqXqX9XqXG.- - - > - - - - - - - - - - - - - - - - - - - - - - - - - - - - - - - - - - - - - - - - - - - - - - - - - - - - - - > - = a.9X9X7XqXqXqX",
"qXqXqXqXqXqX7X0X:X! * - - - - - - - - - - - - - - - - - - - - - - - - - - - - - - - - - - - - - - - - - - - - - - - - - - - - - - - - - * N ].qXqXqXqXqXqX",
"qXqXqXqXqX0X9X7X7XM.0 - - - - - - - - - - - - - - - - - - - - - - - - - - - - - - - - - - - - - - - - - - - - - - - - - - - - - - - - - % e.6XqXqXqXqXqXqX",
"qXqXqXqXqX0X8X7X0X%X` # : - - - - - - - - - - - - - - - - - - - - - - - - - - - - - - - - - - - - - - - - - - - - - - - - - - - - - - @ m  X0XqXqXqXqXqXqX",
"qXqXqXqXqXqXqXqXqX0XQ.2 - - = > - - - - - - - - - - - - - - - - - - - - - - - - - - - - - - - - - - - - - - - - - - - - - - - > - - > . C.9X0XqXqXqXqXqXqX",
"qXqXqXqXqXqXqXqXqXqX9Xu.@ - - > & - - - - - - - - - - - - - - - - - - - - - - - - - - - - - - - - - - - - - - - - - - - - - - - ; - # %.8X9X0XqXqXqXqXqXqX",
"qXqXqXqXqXqXqXqXqX0X0X;X! # = - - - - - - - - - - - - - - - - - - - - - - - - - - - - - - - - - - - - - - - - - - - - - - - - - - $ N {.6X7X0XqXqXqXqXqXqX",
"qXqXqXqXqXqXqXqXqXqXqXqX/.z * ; - - - - - - - - - - - - - - - - - - - - - - - - - - - - - - - - - - - - - - - - - - - - - - - ; > q l.6X7X8X9XqXqXqXqXqXqX",
"qXqXqXqXqXqXqXqXqXqXqXqX8Xx.9 ; - - - - - - - - - - - - - - - - - - - - - - - - - - - - - - - - - - - - - - - - - - - - - - - ; $ *.<XqXqX0XqXqXqXqXqXqXqX",
"qXqXqXqXqXqXqXqXqXqXqXqXqX:X$.@ ; - - - - - - - - - - - - - - - - - - - - - - - - - - - - - - - - - - - - - - - - - - - - - - $ N |.qXqXqXqXqXqXqXqXqXqXqX",
"qXqXqXqXqXqXqXqXqXqXqXqXqX9X[.Z $ - - - - - - - - - - - - - - - - - - - - - - - - - - - - - - - - - - - - - - - - - - - - - & w U.0X0XqXqXqXqXqXqXqXqXqXqX",
"qXqXqXqXqXqXqXqXqXqXqXqXqX9X8X).l $ - - - - - - - - - - - - - : - - - - - - - - ; - - ; - - - - - - - - - - - - - - - - - * 5 c.0XqXqXqXqXqXqXqXqXqXqXqXqX",
"qXqXqXqXqXqXqXqXqXqXqXqX0X6X9X6X~.j * ; - - - - - - - - - - - * - : - = & & o     @ - ; - > > - ; - - - - - - - - - - - - 1 t.5X9XqXqXqXqXqXqXqXqXqXqXqXqX",
"qXqXqXqXqXqXqXqXqXqXqXqXqX8X6X0X8XM.f = - - - - - - - - - - : - - = & - u B U R T H i , # & & - - - - - - - - - - - - - , 5.>XqXqXqXqXqXqXqXqXqXqXqXqXqXqX",
"qXqXqXqXqXqXqXqXqXqXqXqX0X7X8X8X9X5XZ.Z # * : - - ; - = ; - & # 4 A -.c.`.*X7XqXqX3X@XL.3.I u = @ - - - - - - - - = # p p.;X6X0XqXqXqXqXqXqXqXqXqXqXqXqXqX",
"qXqXqXqXqXqXqXqXqXqXqXqXqXqX0X0XqX9X0X'.O.e @ = * - - < + * g X.V.oX7XqXqXqXqXqXqXqXqXqX0X*XH.;.c o O O & = # o O 2 ~ J.0XqX9XqXqXqXqXqXqXqXqXqXqXqXqXqXqX",
"qXqXqXqXqXqXqXqXqXqXqXqXqXqXqXqXqX0X6X8X1XR.#.j < - , k W a.'.1X3X6X8XqXqXqXqXqXqXqXqXqXqX9X9X4XOXc.[ n p w p x @.S.;X8XqXqXqXqXqXqXqXqXqXqXqXqXqXqXqXqXqX",
"qXqXqXqXqXqXqXqXqXqXqXqXqXqXqXqXqXqXqXqXqXqX0X=X{._.[.;XqX0X6X0X8X7X9XqXqXqXqXqXqXqXqXqXqX8X8X8X0X7XqX3X+X+X$X;X0X7X6X0XqXqXqXqXqXqXqXqXqXqXqXqXqXqXqXqXqX",
"qXqXqXqXqXqXqXqXqXqXqXqXqXqXqXqXqX9X0XqX9X9X8X9XqXqXqXqXqXqX0X9X9X0X0XqXqXqXqXqXqXqXqXqXqXqXqXqX9X0X0XqX9XqX0X7X7X8XqX9XqXqXqXqXqXqXqXqXqXqXqXqXqXqXqXqXqX",
"qXqXqXqXqXqXqXqXqXqXqXqXqXqXqXqXqXqXqXqXqXqXqXqXqXqXqXqXqXqXqXqXqXqXqXqXqXqXqXqXqXqXqXqXqXqXqXqXqXqXqXqXqXqXqXqXqXqXqXqXqXqXqXqXqXqXqXqXqXqXqXqXqXqXqXqXqX",
"qXqXqXqXqXqXqXqXqXqXqXqXqXqXqXqXqXqXqXqXqXqXqXqXqXqXqXqXqXqXqXqXqXqXqXqXqXqXqXqXqXqXqXqXqXqXqXqXqXqXqXqXqXqXqXqXqXqXqXqXqXqXqXqXqXqXqXqXqXqXqXqXqXqXqXqXqX"
};
